<svg version="1.1" id="Layer_1" xmlns="http://www.w3.org/2000/svg" xmlns:xlink="http://www.w3.org/1999/xlink" x="0px" y="0px"
	 width="100%" viewBox="0 0 500 500" enable-background="new 0 0 500 500" xml:space="preserve">
<path fill="#000000" opacity="1.000000" stroke="none" 
	d="
M276.000000,501.000000 
	C184.000015,501.000000 92.500046,501.000000 1.000049,501.000000 
	C1.000033,334.333405 1.000033,167.666794 1.000016,1.000139 
	C167.666565,1.000092 334.333130,1.000092 500.999756,1.000046 
	C500.999847,167.666519 500.999847,334.333038 500.999939,500.999786 
	C426.166656,501.000000 351.333344,501.000000 276.000000,501.000000 
M210.069870,217.805115 
	C207.354172,226.303619 206.862381,235.016556 209.145493,243.556396 
	C211.368393,251.870926 214.942276,260.173401 222.049606,265.175873 
	C231.426910,271.776093 241.855637,276.316101 254.094223,275.098785 
	C268.297455,273.686066 280.064575,267.927429 287.749146,255.989746 
	C293.755585,246.659012 295.941772,235.636520 293.634399,224.720886 
	C291.062836,212.555389 285.291718,202.037643 273.913330,195.266968 
	C263.634766,189.150757 252.812180,187.272751 241.375381,189.991364 
	C232.415863,192.121124 223.786255,195.293015 218.605743,203.891800 
	C215.936813,208.321808 213.156799,212.684891 210.069870,217.805115 
z"/>
<path fill="#FF1616" opacity="1.000000" stroke="none" 
	d="
M210.248413,217.441666 
	C213.156799,212.684891 215.936813,208.321808 218.605743,203.891800 
	C223.786255,195.293015 232.415863,192.121124 241.375381,189.991364 
	C252.812180,187.272751 263.634766,189.150757 273.913330,195.266968 
	C285.291718,202.037643 291.062836,212.555389 293.634399,224.720886 
	C295.941772,235.636520 293.755585,246.659012 287.749146,255.989746 
	C280.064575,267.927429 268.297455,273.686066 254.094223,275.098785 
	C241.855637,276.316101 231.426910,271.776093 222.049606,265.175873 
	C214.942276,260.173401 211.368393,251.870926 209.145493,243.556396 
	C206.862381,235.016556 207.354172,226.303619 210.248413,217.441666 
M245.406738,219.000000 
	C239.326019,219.000000 233.245316,219.000000 227.248657,219.000000 
	C227.248657,215.655106 227.248657,213.051468 227.248657,209.918350 
	C237.251068,209.918350 247.020370,209.918350 256.789673,209.918350 
	C256.781219,209.738144 256.772766,209.557953 256.764343,209.377747 
	C246.570999,209.377747 236.377655,209.377747 226.255859,209.377747 
	C226.255859,213.026840 226.255859,216.292236 226.255859,219.682037 
	C235.595139,219.682037 244.676102,219.682037 253.757065,219.682037 
	C253.757462,219.454697 253.757843,219.227341 253.758240,219.000000 
	C251.294479,219.000000 248.830704,219.000000 245.406738,219.000000 
M243.000717,251.379761 
	C243.844315,252.583847 244.586533,254.722305 245.549454,254.826813 
	C249.289032,255.232620 253.098740,254.992035 256.882355,254.992035 
	C256.885620,254.662704 256.888885,254.333359 256.892151,254.004028 
	C252.719406,254.004028 248.546661,254.004028 244.318268,254.004028 
	C244.318268,250.727951 244.318268,248.012863 244.318268,244.919495 
	C247.719467,244.919495 250.815826,244.919495 253.912170,244.919495 
	C253.905380,244.707657 253.898590,244.495834 253.891815,244.283997 
	C250.389801,244.283997 246.887787,244.283997 243.000092,244.283997 
	C243.000092,246.522339 243.000092,248.481201 243.000717,251.379761 
z"/>
<path fill="#000000" opacity="1.000000" stroke="none" 
	d="
M245.886841,219.000000 
	C248.830704,219.000000 251.294479,219.000000 253.758240,219.000000 
	C253.757843,219.227341 253.757462,219.454697 253.757065,219.682037 
	C244.676102,219.682037 235.595139,219.682037 226.255859,219.682037 
	C226.255859,216.292236 226.255859,213.026840 226.255859,209.377747 
	C236.377655,209.377747 246.570999,209.377747 256.764343,209.377747 
	C256.772766,209.557953 256.781219,209.738144 256.789673,209.918350 
	C247.020370,209.918350 237.251068,209.918350 227.248657,209.918350 
	C227.248657,213.051468 227.248657,215.655106 227.248657,219.000000 
	C233.245316,219.000000 239.326019,219.000000 245.886841,219.000000 
z"/>
<path fill="#000000" opacity="1.000000" stroke="none" 
	d="
M243.000397,250.909912 
	C243.000092,248.481201 243.000092,246.522339 243.000092,244.283997 
	C246.887787,244.283997 250.389801,244.283997 253.891815,244.283997 
	C253.898590,244.495834 253.905380,244.707657 253.912170,244.919495 
	C250.815826,244.919495 247.719467,244.919495 244.318268,244.919495 
	C244.318268,248.012863 244.318268,250.727951 244.318268,254.004028 
	C248.546661,254.004028 252.719406,254.004028 256.892151,254.004028 
	C256.888885,254.333359 256.885620,254.662704 256.882355,254.992035 
	C253.098740,254.992035 249.289032,255.232620 245.549454,254.826813 
	C244.586533,254.722305 243.844315,252.583847 243.000397,250.909912 
z"/>
</svg>